<svg width="64" height="64" viewBox="0 0 64 64" fill="none" xmlns="http://www.w3.org/2000/svg">
<g clip-path="url(#clip0_42_10)">
<path d="M63.2728 32C63.2728 14.7286 49.2715 0.727295 32 0.727295C14.7286 0.727295 0.727295 14.7286 0.727295 32C0.727295 49.2715 14.7286 63.2728 32 63.2728C49.2715 63.2728 63.2728 49.2715 63.2728 32Z" fill="#1A1A1A"/>
<path fill-rule="evenodd" clip-rule="evenodd" d="M23.515 25.212H40.4848V38.7877H23.515V25.212ZM25.212 26.9089V28.0545L32 31.0714L38.7877 28.0545V26.9089H25.212ZM38.7877 29.9115L32 32.9284L25.212 29.9115V37.0907H38.7877V29.9115Z" fill="#9A9A9A"/>
<path d="M63.2728 32C63.2728 14.7286 49.2715 0.727295 32 0.727295C14.7286 0.727295 0.727295 14.7286 0.727295 32C0.727295 49.2715 14.7286 63.2728 32 63.2728C49.2715 63.2728 63.2728 49.2715 63.2728 32Z" stroke="#242424"/>
</g>
<defs>
<clipPath id="clip0_42_10">
<rect width="64" height="64" fill="white"/>
</clipPath>
</defs>
</svg>
